<?xml version="1.0" encoding="utf-8"?>
<!-- Generator: Adobe Illustrator 24.1.1, SVG Export Plug-In . SVG Version: 6.00 Build 0)  -->
<svg version="1.1" id="デザインエリア" xmlns="http://www.w3.org/2000/svg" xmlns:xlink="http://www.w3.org/1999/xlink"
	 x="0px" y="0px" viewBox="0 0 2520 2992" style="enable-background:new 0 0 2520 2992;" xml:space="preserve">
<style type="text/css">
	.st0{fill:#4C4B4C;stroke:#4C4B4C;stroke-width:4;stroke-miterlimit:10;}
	.st1{fill:#4C4B4C;}
	.st2{fill:none;stroke:#4C4B4C;stroke-width:50;stroke-miterlimit:10;}
	.st3{fill:none;stroke:#4C4B4C;stroke-width:12;stroke-miterlimit:10;}
	.st4{fill:#5F5F5F;}
	.st5{fill:none;stroke:#4C4B4C;stroke-width:18;stroke-linecap:round;stroke-miterlimit:10;}
</style>
<g id="レイヤー_3">
</g>
<g>
	<path class="st0" d="M1177.54,1644.8v-25.89h165.9v25.89H1177.54L1177.54,1644.8z M1343.44,1590.4v19h-165.9v-19H1343.44
		L1343.44,1590.4z M1205.56,1440.88v43.85h42v-24.01c0-1.55,1.26-2.82,2.81-2.82h20.23c1.55,0,2.81,1.26,2.81,2.82v24.01h42v-43.85
		h28.02v140.01h-165.9v-140.01H1205.56L1205.56,1440.88z M1305.93,1435.64v39.59h-23v-14.51c0-6.8-5.52-12.32-12.32-12.32h-20.23
		c-6.8,0-12.32,5.51-12.32,12.32v14.51h-23v-41.38c0-1.37-1.11-2.47-2.47-2.47h-42.03c-1.39,0-2.52,1.13-2.52,2.52v217.94
		c0,1.35,1.1,2.45,2.45,2.45h179.92c1.4,0,2.53-1.13,2.53-2.53v-217.78c0-1.44-1.16-2.6-2.6-2.6h-41.78c-1.46,0-2.64,1.18-2.64,2.64
		V1435.64z"/>
</g>
<g>
	<g>
		<rect x="329.76" y="1641.91" class="st1" width="31.81" height="10.6"/>
		<rect x="513.98" y="1641.91" class="st1" width="31.81" height="10.6"/>
		<path class="st1" d="M554.5,1433.16H321.05c-16.28,0-29.47,13.19-29.47,29.47v141.93c0,16.28,13.19,29.47,29.47,29.47H554.5
			c16.28,0,29.47-13.19,29.47-29.47v-141.93C583.97,1446.36,570.78,1433.17,554.5,1433.16z M510.02,1620.66H321.05
			c-4.46,0-8.44-1.79-11.37-4.71c-2.92-2.93-4.71-6.91-4.71-11.37v-141.93c0-4.46,1.79-8.44,4.71-11.37
			c2.93-2.92,6.91-4.7,11.37-4.71h188.97L510.02,1620.66L510.02,1620.66z M570.58,1604.57c0,4.46-1.79,8.44-4.71,11.37
			c-2.93,2.92-6.91,4.7-11.37,4.71h-35.55v-174.1h35.55c4.46,0,8.44,1.79,11.37,4.71c2.92,2.93,4.7,6.91,4.71,11.37V1604.57
			L570.58,1604.57z"/>
		<rect x="532.78" y="1472.45" class="st1" width="22.32" height="22.32"/>
		<path class="st1" d="M543.95,1520.82c-4.11,0-7.44,3.33-7.44,7.44c0,4.11,3.33,7.44,7.44,7.44c4.11,0,7.44-3.33,7.44-7.44
			C551.38,1524.15,548.05,1520.82,543.95,1520.82z"/>
		<path class="st1" d="M543.95,1565.46c-4.11,0-7.44,3.33-7.44,7.44c0,4.11,3.33,7.44,7.44,7.44c4.11,0,7.44-3.33,7.44-7.44
			C551.38,1568.79,548.05,1565.46,543.95,1565.46z"/>
		<rect x="333.39" y="1471.71" class="st1" width="152.82" height="124.54"/>
	</g>
</g>
<g>
	<g>
		<path class="st1" d="M2172.27,1433.46h-133.82c-12.02,0-21.75,9.74-21.75,21.75v176.52c0,5.6,2.29,10.96,6.35,14.82
			c4.06,3.86,9.52,5.9,15.11,5.63l122.29-5.91v0c4.55-0.04,8.92-0.98,12.89-2.66c6.09-2.58,11.25-6.86,14.9-12.27
			c3.65-5.4,5.8-11.96,5.8-18.96v-157.17C2194.03,1443.2,2184.29,1433.46,2172.27,1433.46z M2181.39,1612.39
			c0,2.95-0.6,5.73-1.67,8.27c-1.61,3.8-4.31,7.07-7.71,9.36c-3.4,2.29-7.45,3.62-11.87,3.63c-2.78,0-5.54-0.67-8.18-2.01
			c-3.95-2.01-7.68-5.58-10.47-10.81c-2.78-5.23-4.6-12.12-4.6-20.59v-3.77c0-1.29-0.65-2.5-1.73-3.21
			c-1.08-0.71-2.44-0.83-3.63-0.32l-95.05,40.96c-1.58,0.68-3.4,0.52-4.84-0.42s-2.3-2.56-2.3-4.28v-172.86
			c0-5.65,4.58-10.24,10.23-10.24h131.58c5.66,0,10.24,4.58,10.24,10.24L2181.39,1612.39L2181.39,1612.39z"/>
		<rect x="2057.51" y="1479.51" class="st1" width="95.71" height="12.64"/>
		<rect x="2057.51" y="1518.34" class="st1" width="95.71" height="12.64"/>
		<rect x="2057.51" y="1557.16" class="st1" width="95.71" height="12.64"/>
	</g>
</g>
<circle class="st2" cx="643.7" cy="397.17" r="139.37"/>
<g>
	<line class="st2" x1="2017.49" y1="280.36" x2="1794.52" y2="503.33"/>
	<line class="st2" x1="1794.52" y1="280.36" x2="2017.49" y2="503.33"/>
</g>
<g>
	<g>
		<path class="st1" d="M2370.17,930.76c-3.34-7.9-8.87-14.62-16-19.43c-7.3-4.94-15.83-7.55-24.71-7.55h-249.85
			c-5.97,0-11.76,1.17-17.2,3.47c-7.9,3.35-14.62,8.88-19.44,16.01c-4.95,7.31-7.56,15.85-7.55,24.71v148.32
			c0,5.96,1.17,11.75,3.48,17.2c3.35,7.9,8.87,14.62,16,19.43c7.3,4.94,15.83,7.55,24.69,7.55h249.88c5.97,0,11.76-1.17,17.2-3.48
			c7.9-3.34,14.62-8.87,19.44-15.99c4.95-7.31,7.56-15.85,7.55-24.71V947.96C2373.65,942,2372.48,936.21,2370.17,930.76z
			 M2348.73,1096.29c0,2.61-0.51,5.13-1.51,7.49c-1.44,3.41-3.93,6.42-7,8.49c-3.23,2.17-6.85,3.27-10.76,3.28h-249.85
			c-2.6,0-5.13-0.51-7.49-1.5c-3.4-1.44-6.42-3.92-8.49-7.01c-2.17-3.22-3.27-6.85-3.28-10.76V947.96c0-2.61,0.51-5.13,1.51-7.49
			c1.43-3.4,3.92-6.41,7-8.49c3.24-2.17,6.86-3.27,10.76-3.28h249.85c2.6,0,5.12,0.51,7.5,1.51c3.4,1.43,6.42,3.92,8.5,7
			c2.17,3.22,3.27,6.84,3.28,10.76V1096.29z"/>
		<path class="st1" d="M2308.7,957.48h-37.02l-71.83,129.29h108.85c6.21,0,11.24-5.03,11.24-11.24v-106.8
			C2319.94,962.51,2314.91,957.48,2308.7,957.48z"/>
	</g>
</g>
<g>
	<g>
		<path class="st1" d="M1073.05,896.67h-254.6c-25.44,0-46.07,20.64-46.07,46.07v151.66c0,25.44,20.64,46.07,46.07,46.07h254.6
			c25.44,0,46.07-20.64,46.07-46.07V942.74C1119.13,917.3,1098.49,896.67,1073.05,896.67z M1097.46,1094.4
			c0,13.46-10.94,24.4-24.4,24.4h-254.6c-13.46,0-24.4-10.94-24.4-24.4v-97.5h303.41V1094.4z M1097.46,964.39H794.05v-21.65
			c0-13.46,10.94-24.4,24.4-24.4h254.6c13.46,0,24.4,10.94,24.4,24.4V964.39z"/>
		<rect x="842.81" y="1041.14" class="st1" width="43.34" height="43.34"/>
		<rect x="948.46" y="1041.14" class="st1" width="108.36" height="16.25"/>
		<rect x="948.46" y="1073.65" class="st1" width="86.69" height="16.25"/>
	</g>
</g>
<g>
	<g>
		<path class="st1" d="M125.15,918.77v199.61c0,0.6,0.49,1.1,1.1,1.1h377.67c0.6,0,1.1-0.49,1.1-1.1V918.77c0-0.6-0.49-1.1-1.1-1.1
			H126.24C125.64,917.67,125.15,918.16,125.15,918.77z M148.89,1060.56v-83.99c0-0.53,0.38-0.97,0.9-1.07
			c16.29-3.14,28.95-16.47,31.04-33.11c0.07-0.55,0.53-0.97,1.08-0.97h94.25c1.06,0,1.49,1.34,0.65,1.97
			c-20.76,15.57-34.57,43.38-34.57,75.19c0,31.8,13.81,59.62,34.57,75.19c0.84,0.63,0.41,1.97-0.65,1.97H181.9
			c-0.55,0-1.01-0.42-1.08-0.97c-2.09-16.66-14.74-29.99-31.04-33.14C149.27,1061.53,148.89,1061.08,148.89,1060.56z M352.9,994.99
			v3.13v9.51v2.05c0,0.6-0.49,1.1-1.1,1.1h-24.37c-0.37,0-0.72,0.19-0.92,0.5l-2.31,3.57c-0.11,0.18-0.17,0.38-0.17,0.59v9.02
			c0,0.6,0.49,1.1,1.1,1.1h27.77v0.05v13.49v1.03c0,0.6-0.49,1.1-1.1,1.1h-26.67c-0.6,0-1.1,0.49-1.1,1.1v19.29
			c0,0.6-0.49,1.1-1.1,1.1h-15.72c-0.6,0-1.1-0.49-1.1-1.1v-19.29c0-0.6-0.49-1.1-1.1-1.1h-26.66c-0.6,0-1.1-0.49-1.1-1.1v-1.03
			v-13.49v-0.05h27.76c0.6,0,1.1-0.49,1.1-1.1v-8.99c0-0.21-0.06-0.42-0.17-0.59l-2.31-3.6c-0.2-0.31-0.55-0.5-0.92-0.5h-24.35
			c-0.6,0-1.1-0.49-1.1-1.1v-2.05v-9.51v-2.03c0-0.6,0.49-1.1,1.1-1.1h12.8c0.87,0,1.39-0.96,0.92-1.69l-11.05-17.18
			c-0.47-0.73,0.05-1.69,0.92-1.69h0.01h13.17h1.42c0.37,0,0.72,0.19,0.92,0.5l16.67,25.94c0.43,0.67,1.41,0.67,1.84,0l16.69-25.94
			c0.2-0.31,0.55-0.5,0.92-0.5h1.42h13.17l0,0c0.87,0,1.39,0.96,0.92,1.69l-11.04,17.18c-0.47,0.73,0.06,1.69,0.92,1.69H352.9
			L352.9,994.99z M387.93,1018.57c0-31.81-13.81-59.62-34.57-75.19c-0.84-0.63-0.41-1.97,0.65-1.97h94.23
			c0.55,0,1.01,0.42,1.08,0.97c2.09,16.63,14.77,29.97,31.06,33.1c0.52,0.1,0.9,0.54,0.9,1.07v84c0,0.53-0.38,0.97-0.9,1.07
			c-16.3,3.15-28.97,16.49-31.06,33.14c-0.07,0.55-0.53,0.97-1.08,0.97h-94.23c-1.06,0-1.49-1.34-0.65-1.97
			C374.11,1078.19,387.93,1050.37,387.93,1018.57z"/>
	</g>
</g>
<g>
	<rect x="1473.4" y="904.44" class="st3" width="65.95" height="65.95"/>
	<rect x="1473.4" y="1063.51" class="st3" width="65.95" height="65.95"/>
	<rect x="1632.29" y="904.44" class="st3" width="65.95" height="65.95"/>
	<rect x="1489.89" y="920.38" class="st1" width="32.97" height="32.97"/>
	<rect x="1648.54" y="920.38" class="st1" width="32.97" height="32.97"/>
	<rect x="1489.89" y="1079.99" class="st1" width="32.97" height="32.97"/>
	<rect x="1539.35" y="970.39" class="st1" width="32.97" height="32.97"/>
	<rect x="1572.33" y="895.46" class="st1" width="28.23" height="74.39"/>
	<rect x="1633.48" y="970.39" class="st1" width="32.97" height="32.97"/>
	<rect x="1605.3" y="970.39" class="st1" width="32.97" height="32.97"/>
	<rect x="1567.59" y="1095.77" class="st1" width="32.97" height="32.97"/>
	<rect x="1668.99" y="1063.51" class="st1" width="32.97" height="32.97"/>
	<rect x="1638.28" y="1094.35" class="st1" width="32.97" height="32.97"/>
	<rect x="1572.33" y="1035.62" class="st1" width="32.97" height="32.97"/>
	<rect x="1498.91" y="1026.91" class="st1" width="32.97" height="32.97"/>
	<rect x="1670.01" y="1003.37" class="st1" width="32.97" height="32.97"/>
	<rect x="1572.33" y="1003.37" class="st1" width="32.97" height="32.97"/>
	<rect x="1605.3" y="1056.99" class="st1" width="32.97" height="32.97"/>
	<rect x="1464.23" y="991.94" class="st1" width="32.97" height="32.97"/>
	<rect x="1637.22" y="1032.37" class="st1" width="32.97" height="32.97"/>
</g>
<g>
	<g>
		<path class="st4" d="M185.58,2354.32c14.33,0,25.43,6.21,33.3,18.63c6.59,10.37,9.89,24.04,9.89,41.01
			c0,15.51-2.8,28.29-8.39,38.35c-7.78,14.06-19.45,21.08-35,21.08c-13.96,0-24.86-5.82-32.68-17.47
			c-7.05-10.46-10.58-24.45-10.58-41.96c0-18.19,3.78-32.59,11.33-43.19C161.26,2359.81,171.97,2354.32,185.58,2354.32z
			 M185.37,2368.99c-7.37,0-13.19,4.05-17.47,12.15c-4.14,7.92-6.21,18.85-6.21,32.82c0,13.06,1.89,23.47,5.66,31.25
			c4.32,8.83,10.37,13.24,18.15,13.24c6.82,0,12.35-3.55,16.58-10.64c4.73-7.96,7.1-19.24,7.1-33.84c0-13.87-2.05-24.77-6.14-32.68
			C198.77,2373.09,192.88,2368.99,185.37,2368.99z"/>
	</g>
</g>
<g>
	<g>
		<path class="st4" d="M1636.79,2356.44h21.22v73.21h20.26v14.53h-20.26v26.13h-17.06v-26.13h-56.7v-14.4L1636.79,2356.44z
			 M1640.95,2429.65v-32.41c0-7.41,0.32-15.85,0.96-25.31h-0.55c-4.41,9.37-8.19,16.26-11.33,20.67l-25.93,37.05H1640.95z"/>
	</g>
</g>
<g>
	<g>
		<path class="st4" d="M1250.62,2403.65h9.48c8.01,0,14.44-1.43,19.31-4.3c5.96-3.5,8.94-8.3,8.94-14.4c0-5.05-2.18-9.05-6.55-12.01
			c-3.87-2.59-8.69-3.89-14.46-3.89c-10.46,0-20.52,4-30.16,12.01l-9.89-12.21c11.69-9.37,25.45-14.06,41.28-14.06
			c10.6,0,19.31,2.18,26.13,6.55c8.23,5.32,12.35,12.85,12.35,22.58c0,7.46-2.84,13.85-8.53,19.17c-4.41,4.09-10.23,6.66-17.47,7.71
			v0.55c9.37,1.55,16.53,4.64,21.49,9.28c5.14,4.82,7.71,11.26,7.71,19.31c0,11.74-4.75,20.51-14.26,26.34
			c-7.14,4.37-16.51,6.55-28.11,6.55c-18.29,0-33.12-5.59-44.49-16.78l10.3-12.28c3.64,3.87,8.32,7.05,14.06,9.55
			c6.96,3.05,13.71,4.57,20.27,4.57c7.37,0,13.12-1.55,17.26-4.64c4-2.96,6-7.48,6-13.58c0-8.37-4.03-14.31-12.08-17.81
			c-5.41-2.36-11.92-3.55-19.51-3.55h-9.08V2403.65z"/>
	</g>
</g>
<g>
	<g>
		<path class="st4" d="M868.13,2470.32v-15.42c4.32-13.42,16.1-26.54,35.34-39.37l3.75-2.52c8.28-5.5,13.96-10.01,17.06-13.51
			c3.46-3.91,5.19-8.14,5.19-12.69c0-4.09-1.25-7.64-3.75-10.64c-3.73-4.5-9.3-6.75-16.72-6.75c-11.05,0-20.99,4.62-29.82,13.85
			l-11.74-10.78c3.09-3.78,6.78-6.96,11.05-9.55c9.14-5.55,19.33-8.32,30.57-8.32c8.73,0,16.31,1.66,22.72,4.98
			c5.55,2.91,9.83,6.87,12.83,11.87c2.77,4.73,4.16,9.85,4.16,15.35c0,7.23-2.75,13.92-8.26,20.06
			c-3.68,4.14-10.58,9.64-20.67,16.51l-4.37,2.93c-10.69,7.23-17.74,12.6-21.15,16.1c-4.19,4.28-6.96,8.12-8.32,11.53h63.86v16.38
			H868.13z"/>
	</g>
</g>
<g>
	<g>
		<path class="st4" d="M543.91,2470.32v-96.41c-9.64,3.23-18.74,5.62-27.29,7.16l-3.34-13.85c14.42-3.5,26.25-7.55,35.48-12.15h13.1
			v115.24H543.91z"/>
	</g>
</g>
<g>
	<g>
		<path class="st4" d="M1962.79,2357.12h66.12v15.08h-51.31l-4.03,32.27h0.55c7-5.05,15.12-7.57,24.36-7.57
			c6.32,0,12.26,1.43,17.81,4.3c7.78,3.96,13.21,9.99,16.31,18.08c1.73,4.55,2.59,9.6,2.59,15.15c0,12.46-4.6,22.29-13.78,29.48
			c-7.64,5.96-17.15,8.94-28.52,8.94c-16.47,0-29.7-4.96-39.71-14.87l9.35-11.74c3.64,3.59,8.07,6.37,13.3,8.32
			c5.69,2.14,11.28,3.21,16.79,3.21c6.23,0,11.55-1.73,15.97-5.19c5.64-4.41,8.46-10.51,8.46-18.29c0-6.78-1.96-12.3-5.87-16.58
			c-4.23-4.64-10.08-6.96-17.54-6.96c-10.14,0-17.58,3.55-22.31,10.64l-15.35-2.52L1962.79,2357.12z"/>
	</g>
</g>
<g>
	<g>
		<path class="st4" d="M2333.27,2411.5c6.28-9.51,15.62-14.26,28.04-14.26c10.05,0,18.65,3.16,25.79,9.48
			c7.82,6.96,11.74,15.83,11.74,26.61c0,11.05-3.5,20.26-10.51,27.63c-7.42,7.82-17.26,11.74-29.54,11.74
			c-14.37,0-25.75-5.32-34.12-15.97c-6.73-8.6-10.1-20.67-10.1-36.23c0-10.83,3.09-21.58,9.28-32.27
			c10.37-18.06,27.77-29.95,52.2-35.68l6.41,13.37c-15.83,4.59-27.22,10.33-34.18,17.19c-8.83,8.69-14.01,18.15-15.56,28.38H2333.27
			z M2358.03,2410.41c-6.92,0-12.81,2.75-17.67,8.26c-3.87,4.32-5.8,8.98-5.8,13.99c0,5.37,1.52,10.28,4.57,14.74
			c4.91,7.19,11.33,10.78,19.24,10.78c6.91,0,12.6-2.64,17.06-7.92c3.59-4.32,5.39-9.78,5.39-16.38c0-7.46-2.21-13.26-6.62-17.4
			C2369.88,2412.43,2364.49,2410.41,2358.03,2410.41z"/>
	</g>
</g>
<g>
	<g>
		<path class="st4" d="M931.82,2749.77c-2.46,3.91-5.71,7.05-9.76,9.42c-5.5,3.14-11.71,4.71-18.63,4.71
			c-10.14,0-18.74-3.21-25.79-9.62c-7.69-6.96-11.53-16.21-11.53-27.77c0-10.46,3.02-19.22,9.07-26.27
			c8.05-9.46,18.65-14.19,31.8-14.19c14.01,0,24.88,4.89,32.61,14.67c7,8.78,10.51,21.63,10.51,38.55
			c0,16.38-3.78,29.95-11.33,40.73c-5.64,8.05-13.81,14.33-24.49,18.83c-7.51,3.14-16.85,5.62-28.04,7.44l-7.57-15.08
			c16.06-1.41,28.32-5.19,36.78-11.33c9.23-6.73,14.92-16.76,17.06-30.09H931.82z M906.92,2700.71c-6.92,0-12.55,2.62-16.92,7.85
			c-3.73,4.46-5.59,10.23-5.59,17.33c0,6.78,1.82,12.21,5.46,16.31c4.41,5.05,9.96,7.57,16.65,7.57c7.78,0,13.87-2.87,18.29-8.6
			c3.55-4.55,5.32-9.53,5.32-14.94c0-6.73-1.68-12.3-5.05-16.72C920.61,2703.64,914.56,2700.71,906.92,2700.71z"/>
	</g>
</g>
<g>
	<g>
		<path class="st4" d="M530.24,2743.9c-15.19-5.19-22.79-14.31-22.79-27.36c0-9.19,4-16.69,12.01-22.52
			c7.41-5.41,16.72-8.12,27.91-8.12c9.83,0,18.24,2.02,25.25,6.07c9.64,5.55,14.46,13.33,14.46,23.33c0,8.23-2.75,14.71-8.26,19.45
			c-4.41,3.82-9.71,6.55-15.9,8.19v0.41c8.05,2.59,14.15,5.78,18.29,9.55c6.64,5.96,9.96,12.96,9.96,21.01
			c0,9.28-3.96,16.76-11.87,22.45c-8.05,5.73-18.67,8.6-31.86,8.6c-11.24,0-20.58-2.07-28.04-6.21
			c-10.1-5.55-15.15-13.67-15.15-24.36c0-8.55,3.62-15.76,10.85-21.63c4.18-3.41,9.23-6.19,15.15-8.32V2743.9z M546.61,2750.93
			c-7.51,2.09-13.21,4.94-17.13,8.53c-4.28,3.91-6.41,8.37-6.41,13.37c0,5.46,2.32,9.87,6.96,13.24c4.59,3.28,10.37,4.91,17.33,4.91
			c5.59,0,10.51-1.09,14.74-3.27c6.59-3.46,9.89-8.53,9.89-15.22c0-5.14-2.57-9.73-7.71-13.78c-3.68-2.91-8.21-5.14-13.58-6.69
			C548.07,2751.25,546.7,2750.88,546.61,2750.93z M547.57,2736.94c6.82-1.73,12.17-4.39,16.03-7.98c3.91-3.59,5.87-7.57,5.87-11.94
			c0-4.96-1.89-9.14-5.66-12.55c-4.23-3.82-9.71-5.73-16.44-5.73c-5,0-9.37,1.14-13.1,3.41c-5.69,3.46-8.53,8.37-8.53,14.74
			c0,4.69,2,8.78,6,12.28c2.73,2.41,6.37,4.48,10.92,6.21C545.61,2736.51,547.25,2737.03,547.57,2736.94z"/>
	</g>
</g>
<g>
	<g>
		<path class="st4" d="M145.57,2688.7h85.97v14.4c-7.92,12.74-15.72,29.43-23.4,50.08c-6.87,18.47-11.87,34.71-15.01,48.72h-19.04
			c3.82-17.56,10.28-36.78,19.38-57.65c8.82-20.2,15.17-33.34,19.04-39.44h-50.01v23.2h-16.92V2688.7z"/>
	</g>
</g>
<g>
	<g>
		<path class="st4" d="M1875.86,2782.8v-61.68c-6.17,2.07-11.99,3.59-17.46,4.58l-2.14-8.86c9.22-2.24,16.79-4.83,22.7-7.77h8.38
			v73.73H1875.86z"/>
		<path class="st4" d="M1912.39,2764.55h14.67v7.51c0,5.47-1.43,10.46-4.28,14.97c-0.96,1.54-2.13,2.92-3.49,4.15h-7.68
			c3.84-3.78,6.13-7.94,6.85-12.48h-6.07V2764.55z"/>
		<path class="st4" d="M1969.71,2708.59c9.17,0,16.27,3.97,21.3,11.92c4.22,6.63,6.33,15.38,6.33,26.23c0,9.92-1.79,18.1-5.37,24.53
			c-4.98,8.99-12.44,13.49-22.39,13.49c-8.93,0-15.9-3.73-20.91-11.17c-4.51-6.69-6.77-15.64-6.77-26.84
			c0-11.64,2.42-20.85,7.25-27.63C1954.15,2712.1,1961,2708.59,1969.71,2708.59z M1969.57,2717.98c-4.71,0-8.44,2.59-11.17,7.77
			c-2.65,5.06-3.97,12.06-3.97,21c0,8.35,1.21,15.02,3.62,19.99c2.76,5.65,6.63,8.47,11.61,8.47c4.37,0,7.9-2.27,10.61-6.81
			c3.03-5.09,4.54-12.31,4.54-21.65c0-8.88-1.31-15.84-3.93-20.91C1978.14,2720.6,1974.38,2717.98,1969.57,2717.98z"/>
		<path class="st4" d="M2037.62,2708.59c9.17,0,16.27,3.97,21.3,11.92c4.22,6.63,6.33,15.38,6.33,26.23c0,9.92-1.79,18.1-5.37,24.53
			c-4.98,8.99-12.44,13.49-22.39,13.49c-8.93,0-15.9-3.73-20.91-11.17c-4.51-6.69-6.77-15.64-6.77-26.84
			c0-11.64,2.42-20.85,7.25-27.63C2022.07,2712.1,2028.92,2708.59,2037.62,2708.59z M2037.49,2717.98c-4.71,0-8.44,2.59-11.17,7.77
			c-2.65,5.06-3.97,12.06-3.97,21c0,8.35,1.21,15.02,3.62,19.99c2.76,5.65,6.63,8.47,11.61,8.47c4.37,0,7.9-2.27,10.61-6.81
			c3.03-5.09,4.54-12.31,4.54-21.65c0-8.88-1.31-15.84-3.93-20.91C2046.06,2720.6,2042.29,2717.98,2037.49,2717.98z"/>
		<path class="st4" d="M2105.54,2708.59c9.17,0,16.27,3.97,21.3,11.92c4.22,6.63,6.33,15.38,6.33,26.23c0,9.92-1.79,18.1-5.37,24.53
			c-4.98,8.99-12.44,13.49-22.39,13.49c-8.93,0-15.9-3.73-20.91-11.17c-4.51-6.69-6.77-15.64-6.77-26.84
			c0-11.64,2.42-20.85,7.25-27.63C2089.99,2712.1,2096.84,2708.59,2105.54,2708.59z M2105.41,2717.98c-4.71,0-8.44,2.59-11.17,7.77
			c-2.65,5.06-3.97,12.06-3.97,21c0,8.35,1.21,15.02,3.62,19.99c2.76,5.65,6.63,8.47,11.61,8.47c4.37,0,7.9-2.27,10.61-6.81
			c3.03-5.09,4.54-12.31,4.54-21.65c0-8.88-1.31-15.84-3.93-20.91C2113.98,2720.6,2110.21,2717.98,2105.41,2717.98z"/>
	</g>
</g>
<g>
	<g>
		<path class="st4" d="M1215.85,2801.89v-96.41c-9.64,3.23-18.74,5.62-27.29,7.16l-3.34-13.85c14.42-3.5,26.25-7.55,35.48-12.15
			h13.1v115.24H1215.85z"/>
		<path class="st4" d="M1316.42,2685.9c14.33,0,25.43,6.21,33.3,18.63c6.59,10.37,9.89,24.04,9.89,41.01
			c0,15.51-2.8,28.29-8.39,38.35c-7.78,14.06-19.45,21.08-35,21.08c-13.96,0-24.86-5.82-32.68-17.47
			c-7.05-10.46-10.58-24.45-10.58-41.96c0-18.19,3.78-32.59,11.33-43.19C1292.11,2691.38,1302.82,2685.9,1316.42,2685.9z
			 M1316.22,2700.57c-7.37,0-13.19,4.05-17.47,12.15c-4.14,7.92-6.21,18.85-6.21,32.82c0,13.06,1.89,23.47,5.66,31.25
			c4.32,8.83,10.37,13.24,18.15,13.24c6.82,0,12.35-3.55,16.58-10.64c4.73-7.96,7.1-19.24,7.1-33.84c0-13.87-2.05-24.77-6.14-32.68
			C1329.61,2704.67,1323.72,2700.57,1316.22,2700.57z"/>
	</g>
</g>
<g>
	<g>
		<path class="st4" d="M1522.64,2801.89v-96.41c-9.64,3.23-18.74,5.62-27.29,7.16l-3.34-13.85c14.42-3.5,26.25-7.55,35.48-12.15
			h13.1v115.24H1522.64z"/>
		<path class="st4" d="M1623.21,2685.9c14.33,0,25.43,6.21,33.3,18.63c6.6,10.37,9.89,24.04,9.89,41.01
			c0,15.51-2.8,28.29-8.39,38.35c-7.78,14.06-19.45,21.08-35,21.08c-13.96,0-24.86-5.82-32.68-17.47
			c-7.05-10.46-10.58-24.45-10.58-41.96c0-18.19,3.78-32.59,11.33-43.19C1598.9,2691.38,1609.61,2685.9,1623.21,2685.9z
			 M1623.01,2700.57c-7.37,0-13.19,4.05-17.47,12.15c-4.14,7.92-6.21,18.85-6.21,32.82c0,13.06,1.89,23.47,5.66,31.25
			c4.32,8.83,10.37,13.24,18.15,13.24c6.82,0,12.35-3.55,16.58-10.64c4.73-7.96,7.1-19.24,7.1-33.84c0-13.87-2.05-24.77-6.14-32.68
			C1636.41,2704.67,1630.52,2700.57,1623.01,2700.57z"/>
		<path class="st4" d="M1729.38,2685.9c14.33,0,25.43,6.21,33.3,18.63c6.59,10.37,9.89,24.04,9.89,41.01
			c0,15.51-2.8,28.29-8.39,38.35c-7.78,14.06-19.45,21.08-35,21.08c-13.96,0-24.86-5.82-32.68-17.47
			c-7.05-10.46-10.58-24.45-10.58-41.96c0-18.19,3.78-32.59,11.33-43.19C1705.07,2691.38,1715.78,2685.9,1729.38,2685.9z
			 M1729.18,2700.57c-7.37,0-13.19,4.05-17.47,12.15c-4.14,7.92-6.21,18.85-6.21,32.82c0,13.06,1.89,23.47,5.66,31.25
			c4.32,8.83,10.37,13.24,18.15,13.24c6.82,0,12.35-3.55,16.58-10.64c4.73-7.96,7.1-19.24,7.1-33.84c0-13.87-2.05-24.77-6.14-32.68
			C1742.57,2704.67,1736.68,2700.57,1729.18,2700.57z"/>
	</g>
</g>
<g>
	<g>
		<path class="st4" d="M2238.54,2773.61v-48.21c-4.82,1.62-9.37,2.81-13.65,3.58l-1.67-6.93c7.21-1.75,13.12-3.78,17.74-6.07h6.55
			v57.62H2238.54z"/>
		<path class="st4" d="M2288.82,2715.62c7.16,0,12.71,3.1,16.65,9.31c3.3,5.19,4.95,12.02,4.95,20.5c0,7.76-1.4,14.15-4.2,19.17
			c-3.89,7.03-9.72,10.54-17.5,10.54c-6.98,0-12.43-2.91-16.34-8.73c-3.53-5.23-5.29-12.22-5.29-20.98c0-9.1,1.89-16.3,5.66-21.59
			C2276.67,2718.36,2282.02,2715.62,2288.82,2715.62z M2288.72,2722.95c-3.68,0-6.6,2.02-8.73,6.07c-2.07,3.96-3.1,9.43-3.1,16.41
			c0,6.53,0.94,11.74,2.83,15.63c2.16,4.41,5.19,6.62,9.08,6.62c3.41,0,6.17-1.77,8.29-5.32c2.37-3.98,3.55-9.62,3.55-16.92
			c0-6.94-1.02-12.38-3.07-16.34C2295.42,2725,2292.47,2722.95,2288.72,2722.95z"/>
		<path class="st4" d="M2320.18,2759.35h11.46v5.87c0,4.28-1.11,8.18-3.34,11.7c-0.75,1.21-1.66,2.29-2.73,3.24h-6
			c3-2.96,4.79-6.21,5.36-9.76h-4.74V2759.35z"/>
		<path class="st4" d="M2364.97,2715.62c7.16,0,12.71,3.1,16.65,9.31c3.3,5.19,4.95,12.02,4.95,20.5c0,7.76-1.4,14.15-4.2,19.17
			c-3.89,7.03-9.72,10.54-17.5,10.54c-6.98,0-12.43-2.91-16.34-8.73c-3.53-5.23-5.29-12.22-5.29-20.98c0-9.1,1.89-16.3,5.66-21.59
			C2352.81,2718.36,2358.17,2715.62,2364.97,2715.62z M2364.87,2722.95c-3.68,0-6.6,2.02-8.73,6.07c-2.07,3.96-3.1,9.43-3.1,16.41
			c0,6.53,0.94,11.74,2.83,15.63c2.16,4.41,5.19,6.62,9.08,6.62c3.41,0,6.17-1.77,8.29-5.32c2.37-3.98,3.55-9.62,3.55-16.92
			c0-6.94-1.02-12.38-3.07-16.34C2371.56,2725,2368.62,2722.95,2364.87,2722.95z"/>
		<path class="st4" d="M2418.05,2715.62c7.16,0,12.71,3.1,16.65,9.31c3.3,5.19,4.95,12.02,4.95,20.5c0,7.76-1.4,14.15-4.2,19.17
			c-3.89,7.03-9.72,10.54-17.5,10.54c-6.98,0-12.43-2.91-16.34-8.73c-3.53-5.23-5.29-12.22-5.29-20.98c0-9.1,1.89-16.3,5.66-21.59
			C2405.9,2718.36,2411.25,2715.62,2418.05,2715.62z M2417.95,2722.95c-3.68,0-6.6,2.02-8.73,6.07c-2.07,3.96-3.1,9.43-3.1,16.41
			c0,6.53,0.94,11.74,2.83,15.63c2.16,4.41,5.19,6.62,9.08,6.62c3.41,0,6.17-1.77,8.29-5.32c2.37-3.98,3.55-9.62,3.55-16.92
			c0-6.94-1.02-12.38-3.07-16.34C2424.65,2725,2421.7,2722.95,2417.95,2722.95z"/>
		<path class="st4" d="M2471.14,2715.62c7.16,0,12.71,3.1,16.65,9.31c3.3,5.19,4.95,12.02,4.95,20.5c0,7.76-1.4,14.15-4.2,19.17
			c-3.89,7.03-9.72,10.54-17.5,10.54c-6.98,0-12.43-2.91-16.34-8.73c-3.53-5.23-5.29-12.22-5.29-20.98c0-9.1,1.89-16.3,5.66-21.59
			C2458.98,2718.36,2464.34,2715.62,2471.14,2715.62z M2471.04,2722.95c-3.68,0-6.6,2.02-8.73,6.07c-2.07,3.96-3.1,9.43-3.1,16.41
			c0,6.53,0.94,11.74,2.83,15.63c2.16,4.41,5.19,6.62,9.08,6.62c3.41,0,6.17-1.77,8.29-5.32c2.37-3.98,3.55-9.62,3.55-16.92
			c0-6.94-1.02-12.38-3.07-16.34C2477.73,2725,2474.79,2722.95,2471.04,2722.95z"/>
	</g>
</g>
<path class="st1" d="M1142.74,2100.43c20,23.27,59.5,22.11,85.77-0.48c15.99-13.75,23.63-33.39,24.51-50.13
	c0.78-14.7,2.46-24.76,14.49-36.83l84.97-73.05c5.89-5.07,6.57-13.96,1.5-19.85l-1.24-1.45c-5.07-5.89-13.96-6.57-19.85-1.5
	l-84.97,73.05c-13.74,10.09-23.94,10.24-38.59,8.8c-16.68-1.64-37.25,2.96-53.24,16.71
	C1129.81,2038.3,1122.75,2077.18,1142.74,2100.43z"/>
<path class="st1" d="M283.79,2073.65l43.4-40.46c2.77-2.58,7.11-2.44,9.7,0.33l1.25,1.35c2.58,2.77,2.42,7.11-0.35,9.7l-43.6,40.64
	c-7.15,6.66-4.81,13.47-0.5,18.09c4.3,4.61,10.93,7.43,18.08,0.76l43.6-40.64c2.77-2.58,7.12-2.43,9.7,0.34l1.25,1.34
	c2.58,2.77,2.42,7.11-0.35,9.7l-43.4,40.46c-12.8,11.93,4.64,29.78,17.16,18.12c14.98-13.96,41.44-38.63,41.44-38.63
	c23.1-21.37,23.94-32.43,22.65-48.2c-1.04-12.7-3.57-22.03,10.77-35.41l81.96-76.4c5.69-5.3,6-14.21,0.7-19.9l-1.3-1.4
	c-5.3-5.69-14.21-6-19.9-0.7l-81.96,76.4c-14.35,13.37-23.47,10.2-36.07,8.27c-15.64-2.4-26.74-2.33-49.67,19.21
	c0,0-26.46,24.67-41.44,38.63C254.4,2066.92,270.98,2085.58,283.79,2073.65z"/>
<g>
	<line class="st5" x1="2183.07" y1="1905.72" x2="1965.8" y2="2122.99"/>
	<g>
		<line class="st5" x1="2225.94" y1="1950.07" x2="1984.73" y2="2140.43"/>
	</g>
</g>
</svg>
